<svg viewBox="0 0 22 20" height="1em" style="transform: translateY(2px)">
  <path d="M19.8401 2.60999C19.3294 2.099 18.7229 1.69364 18.0555 1.41708C17.388 1.14052 16.6726 0.998169 15.9501 0.998169C15.2276 0.998169 14.5122 1.14052 13.8448 1.41708C13.1773 1.69364 12.5709 2.099 12.0601 2.60999L11.0001 3.66999L9.94012 2.60999C8.90843 1.5783 7.50915 0.998704 6.05012 0.998704C4.59109 0.998704 3.19181 1.5783 2.16012 2.60999C1.12843 3.64169 0.548828 5.04096 0.548828 6.49999C0.548828 7.95903 1.12843 9.3583 2.16012 10.39L3.22012 11.45L11.0001 19.23L18.7801 11.45L19.8401 10.39C20.3511 9.87924 20.7565 9.27281 21.033 8.60535C21.3096 7.93789 21.4519 7.22248 21.4519 6.49999C21.4519 5.77751 21.3096 5.0621 21.033 4.39464C20.7565 3.72718 20.3511 3.12075 19.8401 2.60999V2.60999Z" fill="var(--primary)" />
</svg>
